<?xml version="1.0" encoding="UTF-8" standalone="no"?>
<!DOCTYPE svg PUBLIC "-//W3C//DTD SVG 1.1//EN" "http://www.w3.org/Graphics/SVG/1.1/DTD/svg11.dtd">
<svg width="100%" height="100%" viewBox="0 0 240 60" version="1.1" xmlns="http://www.w3.org/2000/svg" xmlns:xlink="http://www.w3.org/1999/xlink" xml:space="preserve" xmlns:serif="http://www.serif.com/" style="fill-rule:evenodd;clip-rule:evenodd;stroke-linejoin:round;stroke-miterlimit:2;">
    <g transform="matrix(0.271663,0,0,0.271663,5.218,-274.545)">
        <text x="465.957px" y="1112.4px" style="font-family:'01FLOPDESIGN';font-size:79.769px;fill:rgb(255,0,0);">沖<tspan x="560.548px 655.14px " y="1112.4px 1112.4px ">縄県</tspan></text>
    </g>
    <g transform="matrix(0.271663,0,0,0.271663,6.46982,-255.042)">
        <text x="465.957px" y="1112.4px" style="font-family:'01FLOPDESIGN';font-size:65.824px;fill:rgb(255,0,0);">対<tspan x="546.94px 627.924px 708.908px 789.891px " y="1112.4px 1112.4px 1112.4px 1112.4px ">策サイト</tspan></text>
    </g>
    <g transform="matrix(0.995712,0,0,0.995712,-86.6998,-5.07324)">
        <g transform="matrix(0.186683,0,0,0.186683,-3.08707,-60.8277)">
            <rect x="491.923" y="428.425" width="687.901" height="156.154" style="fill:rgb(255,0,0);"/>
        </g>
        <g transform="matrix(0.277293,0,0,0.277293,-32.5132,-288.825)">
            <text x="465.957px" y="1193.94px" style="font-family:'migmix-1p-regular', 'MigMix 1P', sans-serif;font-size:84.154px;fill:white;">C<tspan x="522.761px 587.055px " y="1193.94px 1193.94px ">OV</tspan>ID<tspan x="730.286px " y="1193.94px ">-</tspan>19</text>
        </g>
    </g>
</svg>
